<?xml version="1.0" encoding="UTF-8" standalone="no"?>
<!-- Uploaded to: SVG Repo, www.svgrepo.com, Transformed by: SVG Repo Mixer Tools -->

<svg
   fill="#000000"
   height="64px"
   width="64px"
   version="1.1"
   id="Capa_1"
   viewBox="-9.43 -9.43 490.56 490.56"
   xml:space="preserve"
   stroke="#000000"
   stroke-width="11.792525000000001"
   sodipodi:docname="heart-white.svg"
   inkscape:version="1.3.2 (091e20e, 2023-11-25, custom)"
   xmlns:inkscape="http://www.inkscape.org/namespaces/inkscape"
   xmlns:sodipodi="http://sodipodi.sourceforge.net/DTD/sodipodi-0.dtd"
   xmlns="http://www.w3.org/2000/svg"
   xmlns:svg="http://www.w3.org/2000/svg"><sodipodi:namedview
   id="namedview1"
   pagecolor="#ffffff"
   bordercolor="#000000"
   borderopacity="0.25"
   inkscape:showpageshadow="2"
   inkscape:pageopacity="0.0"
   inkscape:pagecheckerboard="0"
   inkscape:deskcolor="#d1d1d1"
   inkscape:zoom="12.828125"
   inkscape:cx="31.961023"
   inkscape:cy="32"
   inkscape:window-width="1920"
   inkscape:window-height="1017"
   inkscape:window-x="-8"
   inkscape:window-y="-8"
   inkscape:window-maximized="1"
   inkscape:current-layer="Capa_1" /><defs
   id="defs1" />

<g
   id="SVGRepo_bgCarrier"
   stroke-width="0"
   style="fill-opacity:1.0;fill:#ffffff;stroke-opacity:1.0;stroke:#ffffff" />

<g
   id="SVGRepo_tracerCarrier"
   stroke-linecap="round"
   stroke-linejoin="round"
   style="fill-opacity:1.0;fill:#ffffff;stroke-opacity:1.0;stroke:#ffffff" />

<g
   id="SVGRepo_iconCarrier"
   style="fill-opacity:1.0;fill:#ffffff;stroke-opacity:1.0;stroke:#ffffff"> <g
   id="g1"
   style="fill-opacity:1.0;fill:#ffffff;stroke-opacity:1.0;stroke:#ffffff"> <path
   d="M433.601,67.001c-24.7-24.7-57.4-38.2-92.3-38.2s-67.7,13.6-92.4,38.3l-12.9,12.9l-13.1-13.1 c-24.7-24.7-57.6-38.4-92.5-38.4c-34.8,0-67.6,13.6-92.2,38.2c-24.7,24.7-38.3,57.5-38.2,92.4c0,34.9,13.7,67.6,38.4,92.3 l187.8,187.8c2.6,2.6,6.1,4,9.5,4c3.4,0,6.9-1.3,9.5-3.9l188.2-187.5c24.7-24.7,38.3-57.5,38.3-92.4 C471.801,124.501,458.301,91.701,433.601,67.001z M414.401,232.701l-178.7,178l-178.3-178.3c-19.6-19.6-30.4-45.6-30.4-73.3 s10.7-53.7,30.3-73.2c19.5-19.5,45.5-30.3,73.1-30.3c27.7,0,53.8,10.8,73.4,30.4l22.6,22.6c5.3,5.3,13.8,5.3,19.1,0l22.4-22.4 c19.6-19.6,45.7-30.4,73.3-30.4c27.6,0,53.6,10.8,73.2,30.3c19.6,19.6,30.3,45.6,30.3,73.3 C444.801,187.101,434.001,213.101,414.401,232.701z"
   id="path1"
   style="fill-opacity:1.0;fill:#ffffff;stroke-opacity:1.0;stroke:#ffffff" /> </g> </g>

</svg>
